<?xml version="1.0" standalone="no"?><!DOCTYPE svg PUBLIC "-//W3C//DTD SVG 1.1//EN" "http://www.w3.org/Graphics/SVG/1.1/DTD/svg11.dtd"><svg t="1614238350079" class="icon" viewBox="0 0 1024 1024" version="1.1" xmlns="http://www.w3.org/2000/svg" p-id="2259" xmlns:xlink="http://www.w3.org/1999/xlink" width="32" height="32"><defs><style type="text/css"></style></defs><path d="M211.8 832c28.2 0 42.6-33.8 23.1-54.1C168.7 708.9 128 615.2 128 512c0-212.1 171.9-384 384-384s384 171.9 384 384c0 103.2-40.7 196.9-106.9 265.9-19.5 20.3-5.1 54.1 23.1 54.1 8.7 0 17.1-3.5 23.1-9.8C912.5 741.7 960 632.4 960 512c0-247.4-200.6-448-448-448S64 264.6 64 512c0 120.4 47.5 229.7 124.7 310.2 6.1 6.3 14.4 9.8 23.1 9.8z" fill="" p-id="2260"></path><path d="M225.8 512c16.3 0 30-12.3 31.8-28.5C271.7 355.5 380.3 256 512 256s240.3 99.5 254.4 227.5c1.8 16.2 15.5 28.5 31.8 28.5 19 0 33.9-16.5 31.8-35.5C812.4 316.5 676.7 192 512 192S211.6 316.5 193.9 476.5c-2 19 12.8 35.5 31.9 35.5z" fill="" p-id="2261"></path><path d="M512 768m-64 0a64 64 0 1 0 128 0 64 64 0 1 0-128 0Z" fill="" p-id="2262"></path><path d="M512 749c-17.6 0-32-14.4-32-32V416c0-17.6 14.4-32 32-32s32 14.4 32 32v301c0 17.6-14.4 32-32 32z" fill="" p-id="2263"></path></svg>