<?xml version="1.0" standalone="no"?><!DOCTYPE svg PUBLIC "-//W3C//DTD SVG 1.1//EN" "http://www.w3.org/Graphics/SVG/1.1/DTD/svg11.dtd"><svg t="1614252083441" class="icon" viewBox="0 0 1024 1024" version="1.1" xmlns="http://www.w3.org/2000/svg" p-id="7159" xmlns:xlink="http://www.w3.org/1999/xlink" width="32" height="32"><defs><style type="text/css"></style></defs><path d="M942.36875001 733.4721875a24 24 0 0 1 20.54343749 43.3921875l-442.9921875 209.9034375a24 24 0 0 1-20.544375 0L56.335625 776.864375a24 24 0 0 1 20.5921875-43.3921875l432.72 205.055625L942.36875001 733.4721875z m-2e-8-155.8565625a24 24 0 1 1 20.54343751 43.3921875L519.92 830.864375a24 24 0 0 1-20.544375 0L56.335625 621.0078125a24 24 0 1 1 20.5921875-43.3921875l432.72 204.96L942.36875001 577.615625z m0-155.9034375a24 24 0 0 1 20.54343751 43.3921875L519.92 675.0078125a24 24 0 0 1-20.544375 0L56.335625 465.104375a24 24 0 0 1 20.5921875-43.3921875l432.72 205.055625L942.36875001 421.7121875z m-45.79312499-134.784375L509.6478125 103.664375 122.72 286.88 509.6 470.24l386.975625-183.36z m66.3365625 21.6965625L519.92 518.5278125a24 24 0 0 1-20.544375 0L56.335625 308.624375a24 24 0 0 1 0-43.344375L499.424375 55.424375a24 24 0 0 1 20.5434375 0l442.9921875 209.855625a24 24 0 0 1 0 43.344375z" fill="#e6e6e6" p-id="7160"></path></svg>